<mxfile host="65bd71144e">
    <diagram id="Bbz-DL7iby2CkZqDCkyE" name="Page-1">
        <mxGraphModel dx="2638" dy="1731" grid="1" gridSize="10" guides="1" tooltips="1" connect="1" arrows="1" fold="1" page="1" pageScale="1" pageWidth="5000" pageHeight="4000" math="0" shadow="0">
            <root>
                <mxCell id="0"/>
                <mxCell id="1" parent="0"/>
                <mxCell id="3" value="dili_intt_bu" style="rounded=1;whiteSpace=wrap;html=1;strokeWidth=5;fontSize=47;verticalAlign=bottom;" parent="1" vertex="1">
                    <mxGeometry x="760" y="500" width="1680" height="830" as="geometry"/>
                </mxCell>
                <mxCell id="4" value="" style="shape=orEllipse;perimeter=ellipsePerimeter;whiteSpace=wrap;html=1;backgroundOutline=1;strokeWidth=5;" parent="1" vertex="1">
                    <mxGeometry x="1180" y="660" width="80" height="80" as="geometry"/>
                </mxCell>
                <mxCell id="5" value="" style="shape=lineEllipse;perimeter=ellipsePerimeter;whiteSpace=wrap;html=1;backgroundOutline=1;strokeWidth=5;verticalAlign=middle;" parent="1" vertex="1">
                    <mxGeometry x="1180" y="940" width="80" height="80" as="geometry"/>
                </mxCell>
                <mxCell id="6" style="html=1;entryX=0;entryY=0.5;entryDx=0;entryDy=0;strokeWidth=5;fontSize=47;" parent="1" source="7" target="4" edge="1">
                    <mxGeometry relative="1" as="geometry"/>
                </mxCell>
                <mxCell id="7" value="a_even_i" style="text;html=1;align=center;verticalAlign=middle;resizable=0;points=[];autosize=1;strokeColor=none;fillColor=none;fontSize=47;strokeWidth=5;" parent="1" vertex="1">
                    <mxGeometry x="495" y="660" width="210" height="70" as="geometry"/>
                </mxCell>
                <mxCell id="8" style="edgeStyle=none;html=1;entryX=0;entryY=0.5;entryDx=0;entryDy=0;strokeWidth=5;fontSize=47;endArrow=block;endFill=1;" parent="1" source="9" target="5" edge="1">
                    <mxGeometry relative="1" as="geometry"/>
                </mxCell>
                <mxCell id="9" value="a_odd_i" style="text;html=1;align=center;verticalAlign=middle;resizable=0;points=[];autosize=1;strokeColor=none;fillColor=none;fontSize=47;strokeWidth=5;" parent="1" vertex="1">
                    <mxGeometry x="505" y="945" width="190" height="70" as="geometry"/>
                </mxCell>
                <mxCell id="10" value="zeta_i" style="text;html=1;align=center;verticalAlign=middle;resizable=0;points=[];autosize=1;strokeColor=none;fillColor=none;fontSize=47;strokeWidth=5;" parent="1" vertex="1">
                    <mxGeometry x="535" y="1170" width="150" height="70" as="geometry"/>
                </mxCell>
                <mxCell id="11" value="" style="endArrow=classicThin;html=1;strokeWidth=5;fontSize=47;exitX=0.995;exitY=0.509;exitDx=0;exitDy=0;exitPerimeter=0;entryX=0.5;entryY=0;entryDx=0;entryDy=0;endFill=0;" parent="1" source="7" target="5" edge="1">
                    <mxGeometry width="50" height="50" relative="1" as="geometry">
                        <mxPoint x="540" y="670" as="sourcePoint"/>
                        <mxPoint x="900" y="700" as="targetPoint"/>
                        <Array as="points">
                            <mxPoint x="900" y="700"/>
                        </Array>
                    </mxGeometry>
                </mxCell>
                <mxCell id="12" value="a_even_o" style="text;html=1;align=center;verticalAlign=middle;resizable=0;points=[];autosize=1;strokeColor=none;fillColor=none;fontSize=47;strokeWidth=5;" parent="1" vertex="1">
                    <mxGeometry x="2500" y="665" width="230" height="70" as="geometry"/>
                </mxCell>
                <mxCell id="13" value="a_odd_o" style="text;html=1;align=center;verticalAlign=middle;resizable=0;points=[];autosize=1;strokeColor=none;fillColor=none;fontSize=47;strokeWidth=5;" parent="1" vertex="1">
                    <mxGeometry x="2500" y="945" width="210" height="70" as="geometry"/>
                </mxCell>
                <mxCell id="15" value="" style="endArrow=block;html=1;strokeWidth=5;fontSize=47;entryX=0.5;entryY=1;entryDx=0;entryDy=0;endFill=1;exitX=0.994;exitY=0.467;exitDx=0;exitDy=0;exitPerimeter=0;" parent="1" source="9" target="4" edge="1">
                    <mxGeometry width="50" height="50" relative="1" as="geometry">
                        <mxPoint x="500" y="980" as="sourcePoint"/>
                        <mxPoint x="1090" y="960" as="targetPoint"/>
                        <Array as="points">
                            <mxPoint x="900" y="980"/>
                        </Array>
                    </mxGeometry>
                </mxCell>
                <mxCell id="16" style="edgeStyle=none;html=1;exitX=1;exitY=0.5;exitDx=0;exitDy=0;strokeWidth=5;fontSize=47;endArrow=block;endFill=1;entryX=0.007;entryY=0.506;entryDx=0;entryDy=0;entryPerimeter=0;" parent="1" source="17" target="12" edge="1">
                    <mxGeometry relative="1" as="geometry">
                        <mxPoint x="1930" y="710" as="targetPoint"/>
                    </mxGeometry>
                </mxCell>
                <mxCell id="17" value="" style="shape=sumEllipse;perimeter=ellipsePerimeter;whiteSpace=wrap;html=1;backgroundOutline=1;strokeWidth=5;fontSize=47;" parent="1" vertex="1">
                    <mxGeometry x="1400" y="660" width="80" height="80" as="geometry"/>
                </mxCell>
                <mxCell id="18" style="edgeStyle=none;html=1;exitX=1;exitY=0.5;exitDx=0;exitDy=0;entryX=0;entryY=0.5;entryDx=0;entryDy=0;strokeWidth=5;fontSize=47;endArrow=block;endFill=1;" parent="1" source="4" target="17" edge="1">
                    <mxGeometry relative="1" as="geometry"/>
                </mxCell>
                <mxCell id="19" value="" style="shape=sumEllipse;perimeter=ellipsePerimeter;whiteSpace=wrap;html=1;backgroundOutline=1;strokeWidth=5;fontSize=47;" parent="1" vertex="1">
                    <mxGeometry x="1400" y="940" width="80" height="80" as="geometry"/>
                </mxCell>
                <mxCell id="20" style="edgeStyle=none;html=1;exitX=1;exitY=0.5;exitDx=0;exitDy=0;entryX=0;entryY=0.5;entryDx=0;entryDy=0;strokeWidth=5;fontSize=47;endArrow=block;endFill=1;" parent="1" source="5" target="19" edge="1">
                    <mxGeometry relative="1" as="geometry"/>
                </mxCell>
                <mxCell id="hTTMyl9lks5x339iqtPv-31" style="edgeStyle=none;html=1;exitX=1;exitY=0.5;exitDx=0;exitDy=0;entryX=0;entryY=0.5;entryDx=0;entryDy=0;strokeWidth=6;fontSize=47;" parent="1" source="22" target="hTTMyl9lks5x339iqtPv-30" edge="1">
                    <mxGeometry relative="1" as="geometry"/>
                </mxCell>
                <mxCell id="22" value="" style="shape=sumEllipse;perimeter=ellipsePerimeter;whiteSpace=wrap;html=1;backgroundOutline=1;strokeWidth=5;fontSize=47;" parent="1" vertex="1">
                    <mxGeometry x="1630" y="940" width="80" height="80" as="geometry"/>
                </mxCell>
                <mxCell id="23" style="edgeStyle=none;html=1;entryX=0.5;entryY=0;entryDx=0;entryDy=0;strokeWidth=5;fontSize=47;endArrow=block;endFill=1;" parent="1" source="24" target="17" edge="1">
                    <mxGeometry relative="1" as="geometry">
                        <Array as="points">
                            <mxPoint x="1440" y="565"/>
                        </Array>
                    </mxGeometry>
                </mxCell>
                <mxCell id="24" value="1/2" style="text;html=1;align=center;verticalAlign=middle;resizable=0;points=[];autosize=1;strokeColor=none;fillColor=none;fontSize=47;strokeWidth=5;" parent="1" vertex="1">
                    <mxGeometry x="1260" y="530" width="90" height="70" as="geometry"/>
                </mxCell>
                <mxCell id="25" style="edgeStyle=none;html=1;entryX=0.5;entryY=1;entryDx=0;entryDy=0;strokeWidth=5;fontSize=47;endArrow=block;endFill=1;" parent="1" source="26" target="19" edge="1">
                    <mxGeometry relative="1" as="geometry">
                        <Array as="points">
                            <mxPoint x="1440" y="1105"/>
                        </Array>
                    </mxGeometry>
                </mxCell>
                <mxCell id="26" value="1/2" style="text;html=1;align=center;verticalAlign=middle;resizable=0;points=[];autosize=1;strokeColor=none;fillColor=none;fontSize=47;strokeWidth=5;" parent="1" vertex="1">
                    <mxGeometry x="1270" y="1070" width="90" height="70" as="geometry"/>
                </mxCell>
                <mxCell id="27" style="edgeStyle=none;html=1;entryX=0.5;entryY=1;entryDx=0;entryDy=0;strokeWidth=5;fontSize=47;endArrow=block;endFill=1;" parent="1" source="28" target="22" edge="1">
                    <mxGeometry relative="1" as="geometry">
                        <Array as="points">
                            <mxPoint x="1670" y="1105"/>
                        </Array>
                    </mxGeometry>
                </mxCell>
                <mxCell id="28" value="-zeta" style="text;html=1;align=center;verticalAlign=middle;resizable=0;points=[];autosize=1;strokeColor=none;fillColor=none;fontSize=47;strokeWidth=5;" parent="1" vertex="1">
                    <mxGeometry x="1490" y="1070" width="130" height="70" as="geometry"/>
                </mxCell>
                <mxCell id="29" style="edgeStyle=none;html=1;exitX=1;exitY=0.5;exitDx=0;exitDy=0;entryX=0;entryY=0.5;entryDx=0;entryDy=0;strokeWidth=5;fontSize=47;endArrow=block;endFill=1;" parent="1" source="19" target="22" edge="1">
                    <mxGeometry relative="1" as="geometry"/>
                </mxCell>
                <mxCell id="30" style="edgeStyle=none;html=1;entryX=0.629;entryY=1.11;entryDx=0;entryDy=0;entryPerimeter=0;strokeWidth=5;fontSize=47;endArrow=block;endFill=1;" parent="1" source="10" target="28" edge="1">
                    <mxGeometry relative="1" as="geometry">
                        <Array as="points">
                            <mxPoint x="1568" y="1210"/>
                        </Array>
                    </mxGeometry>
                </mxCell>
                <mxCell id="hTTMyl9lks5x339iqtPv-32" style="edgeStyle=none;html=1;exitX=1;exitY=0.5;exitDx=0;exitDy=0;strokeWidth=6;fontSize=47;" parent="1" source="hTTMyl9lks5x339iqtPv-30" target="13" edge="1">
                    <mxGeometry relative="1" as="geometry"/>
                </mxCell>
                <mxCell id="hTTMyl9lks5x339iqtPv-30" value="dili_montgomery_reduce" style="rounded=1;whiteSpace=wrap;html=1;strokeWidth=6;fontSize=47;" parent="1" vertex="1">
                    <mxGeometry x="1790" y="887.5" width="540" height="185" as="geometry"/>
                </mxCell>
            </root>
        </mxGraphModel>
    </diagram>
    <diagram id="c14IMwlY2cN6UzSFbGq2" name="Page-2">
        <mxGraphModel dx="3391" dy="2226" grid="1" gridSize="10" guides="1" tooltips="1" connect="1" arrows="1" fold="1" page="1" pageScale="1" pageWidth="5000" pageHeight="4000" math="0" shadow="0">
            <root>
                <mxCell id="0"/>
                <mxCell id="1" parent="0"/>
                <mxCell id="_6zt8qSEfxyJ_Fan0nPb-2" value="dili_ntt_bu" style="rounded=1;whiteSpace=wrap;html=1;strokeWidth=6;fontSize=47;verticalAlign=bottom;" parent="1" vertex="1">
                    <mxGeometry x="510" y="650" width="1740" height="850" as="geometry"/>
                </mxCell>
                <mxCell id="_6zt8qSEfxyJ_Fan0nPb-21" style="edgeStyle=none;html=1;exitX=1;exitY=0.5;exitDx=0;exitDy=0;strokeWidth=6;fontSize=47;" parent="1" source="_6zt8qSEfxyJ_Fan0nPb-3" target="_6zt8qSEfxyJ_Fan0nPb-20" edge="1">
                    <mxGeometry relative="1" as="geometry"/>
                </mxCell>
                <mxCell id="_6zt8qSEfxyJ_Fan0nPb-3" value="" style="shape=sumEllipse;perimeter=ellipsePerimeter;whiteSpace=wrap;html=1;backgroundOutline=1;strokeWidth=6;" parent="1" vertex="1">
                    <mxGeometry x="840" y="1165" width="80" height="80" as="geometry"/>
                </mxCell>
                <mxCell id="_6zt8qSEfxyJ_Fan0nPb-5" value="" style="shape=orEllipse;perimeter=ellipsePerimeter;whiteSpace=wrap;html=1;backgroundOutline=1;strokeWidth=6;" parent="1" vertex="1">
                    <mxGeometry x="2090" y="705" width="80" height="80" as="geometry"/>
                </mxCell>
                <mxCell id="_6zt8qSEfxyJ_Fan0nPb-6" value="" style="shape=lineEllipse;perimeter=ellipsePerimeter;whiteSpace=wrap;html=1;backgroundOutline=1;strokeWidth=6;" parent="1" vertex="1">
                    <mxGeometry x="2080" y="1165" width="80" height="80" as="geometry"/>
                </mxCell>
                <mxCell id="_6zt8qSEfxyJ_Fan0nPb-8" style="html=1;entryX=0;entryY=0.5;entryDx=0;entryDy=0;strokeWidth=6;fontSize=47;" parent="1" source="_6zt8qSEfxyJ_Fan0nPb-9" target="_6zt8qSEfxyJ_Fan0nPb-5" edge="1">
                    <mxGeometry relative="1" as="geometry"/>
                </mxCell>
                <mxCell id="_6zt8qSEfxyJ_Fan0nPb-23" style="edgeStyle=none;html=1;entryX=0;entryY=0;entryDx=0;entryDy=0;strokeWidth=6;fontSize=47;" parent="1" source="_6zt8qSEfxyJ_Fan0nPb-9" target="_6zt8qSEfxyJ_Fan0nPb-6" edge="1">
                    <mxGeometry relative="1" as="geometry">
                        <Array as="points">
                            <mxPoint x="1720" y="750"/>
                        </Array>
                    </mxGeometry>
                </mxCell>
                <mxCell id="_6zt8qSEfxyJ_Fan0nPb-9" value="a_even_i" style="text;html=1;align=center;verticalAlign=middle;resizable=0;points=[];autosize=1;strokeColor=none;fillColor=none;fontSize=47;strokeWidth=6;" parent="1" vertex="1">
                    <mxGeometry x="175" y="715" width="210" height="70" as="geometry"/>
                </mxCell>
                <mxCell id="_6zt8qSEfxyJ_Fan0nPb-10" style="edgeStyle=none;html=1;strokeWidth=6;fontSize=47;" parent="1" source="_6zt8qSEfxyJ_Fan0nPb-11" target="_6zt8qSEfxyJ_Fan0nPb-3" edge="1">
                    <mxGeometry relative="1" as="geometry"/>
                </mxCell>
                <mxCell id="_6zt8qSEfxyJ_Fan0nPb-11" value="a_odd_i" style="text;html=1;align=center;verticalAlign=middle;resizable=0;points=[];autosize=1;strokeColor=none;fillColor=none;fontSize=47;strokeWidth=6;" parent="1" vertex="1">
                    <mxGeometry x="195" y="1170" width="190" height="70" as="geometry"/>
                </mxCell>
                <mxCell id="_6zt8qSEfxyJ_Fan0nPb-12" style="edgeStyle=orthogonalEdgeStyle;html=1;entryX=0.5;entryY=1;entryDx=0;entryDy=0;strokeWidth=6;fontSize=47;" parent="1" source="_6zt8qSEfxyJ_Fan0nPb-13" target="_6zt8qSEfxyJ_Fan0nPb-3" edge="1">
                    <mxGeometry relative="1" as="geometry"/>
                </mxCell>
                <mxCell id="_6zt8qSEfxyJ_Fan0nPb-13" value="zeta_i" style="text;html=1;align=center;verticalAlign=middle;resizable=0;points=[];autosize=1;strokeColor=none;fillColor=none;fontSize=47;strokeWidth=6;" parent="1" vertex="1">
                    <mxGeometry x="205" y="1360" width="150" height="70" as="geometry"/>
                </mxCell>
                <mxCell id="_6zt8qSEfxyJ_Fan0nPb-15" value="a_even_o" style="text;html=1;align=center;verticalAlign=middle;resizable=0;points=[];autosize=1;strokeColor=none;fillColor=none;fontSize=47;strokeWidth=6;" parent="1" vertex="1">
                    <mxGeometry x="2420" y="705" width="230" height="70" as="geometry"/>
                </mxCell>
                <mxCell id="_6zt8qSEfxyJ_Fan0nPb-16" style="edgeStyle=none;html=1;exitX=1;exitY=0.5;exitDx=0;exitDy=0;strokeWidth=6;fontSize=47;endArrow=classicThin;endFill=0;" parent="1" source="_6zt8qSEfxyJ_Fan0nPb-5" target="_6zt8qSEfxyJ_Fan0nPb-15" edge="1">
                    <mxGeometry relative="1" as="geometry">
                        <mxPoint x="2550" y="745" as="targetPoint"/>
                    </mxGeometry>
                </mxCell>
                <mxCell id="_6zt8qSEfxyJ_Fan0nPb-17" value="a_odd_o" style="text;html=1;align=center;verticalAlign=middle;resizable=0;points=[];autosize=1;strokeColor=none;fillColor=none;fontSize=47;strokeWidth=6;" parent="1" vertex="1">
                    <mxGeometry x="2410" y="1170" width="210" height="70" as="geometry"/>
                </mxCell>
                <mxCell id="_6zt8qSEfxyJ_Fan0nPb-18" style="edgeStyle=none;html=1;exitX=1;exitY=0.5;exitDx=0;exitDy=0;strokeWidth=6;fontSize=47;endArrow=classicThin;endFill=0;" parent="1" source="_6zt8qSEfxyJ_Fan0nPb-6" target="_6zt8qSEfxyJ_Fan0nPb-17" edge="1">
                    <mxGeometry relative="1" as="geometry">
                        <mxPoint x="2530" y="1205" as="targetPoint"/>
                    </mxGeometry>
                </mxCell>
                <mxCell id="_6zt8qSEfxyJ_Fan0nPb-22" style="edgeStyle=none;html=1;exitX=1;exitY=0.5;exitDx=0;exitDy=0;entryX=0.5;entryY=1;entryDx=0;entryDy=0;strokeWidth=6;fontSize=47;" parent="1" source="_6zt8qSEfxyJ_Fan0nPb-20" target="_6zt8qSEfxyJ_Fan0nPb-5" edge="1">
                    <mxGeometry relative="1" as="geometry">
                        <Array as="points">
                            <mxPoint x="1720" y="1205"/>
                        </Array>
                    </mxGeometry>
                </mxCell>
                <mxCell id="_6zt8qSEfxyJ_Fan0nPb-24" style="edgeStyle=none;html=1;exitX=1;exitY=0.5;exitDx=0;exitDy=0;entryX=0;entryY=0.5;entryDx=0;entryDy=0;strokeWidth=6;fontSize=47;" parent="1" source="_6zt8qSEfxyJ_Fan0nPb-20" target="_6zt8qSEfxyJ_Fan0nPb-6" edge="1">
                    <mxGeometry relative="1" as="geometry"/>
                </mxCell>
                <mxCell id="_6zt8qSEfxyJ_Fan0nPb-20" value="dili_montgomery_reduce" style="rounded=1;whiteSpace=wrap;html=1;strokeWidth=6;fontSize=47;" parent="1" vertex="1">
                    <mxGeometry x="1050" y="1112.5" width="540" height="185" as="geometry"/>
                </mxCell>
            </root>
        </mxGraphModel>
    </diagram>
</mxfile>